<svg width="20" height="18" viewBox="0 0 20 18" fill="none" xmlns="http://www.w3.org/2000/svg">
<path d="M1.25 10.0004L16.075 10.0004L11.5375 15.4504C11.3253 15.7057 11.2232 16.0348 11.2537 16.3653C11.2842 16.6958 11.4447 17.0007 11.7 17.2129C11.9553 17.4251 12.2844 17.5271 12.6149 17.4967C12.9454 17.4662 13.2503 17.3057 13.4625 17.0504L19.7125 9.55039C19.7545 9.49073 19.7922 9.42806 19.825 9.36289C19.825 9.30039 19.825 9.26289 19.9125 9.20039C19.9692 9.05706 19.9988 8.9045 20 8.75039C19.9988 8.59628 19.9692 8.44371 19.9125 8.30039C19.9125 8.23789 19.9125 8.20039 19.825 8.13789C19.7922 8.07271 19.7545 8.01004 19.7125 7.95039L13.4625 0.450389C13.345 0.309285 13.1978 0.195809 13.0314 0.118033C12.8651 0.0402571 12.6836 9.0285e-05 12.5 0.000387847C12.2079 -0.000182424 11.9249 0.101537 11.7 0.287888C11.5734 0.392825 11.4688 0.521703 11.3921 0.667136C11.3154 0.812569 11.2682 0.971701 11.2531 1.13542C11.238 1.29914 11.2553 1.46423 11.3041 1.62124C11.3529 1.77824 11.4322 1.92408 11.5375 2.05039L16.075 7.50039L1.25 7.50039C0.918479 7.50039 0.600535 7.63209 0.366115 7.86651C0.131694 8.10093 -7.94069e-07 8.41887 -7.65086e-07 8.75039C-7.36104e-07 9.08191 0.131694 9.39985 0.366115 9.63427C0.600536 9.86869 0.918479 10.0004 1.25 10.0004Z" fill="#F53838"/>
</svg>
