<svg xmlns="http://www.w3.org/2000/svg">


<symbol id="search" width="20" height="20" viewBox="0 0 20 20" fill="none" xmlns="http://www.w3.org/2000/svg">
    <path d="M14.5726 16.0029C10.5755 19.1865 4.988 18.3055 2.02842 14.6542C-0.828089 11.129 -0.64944 6.04347 2.44943 2.82482C5.65137 -0.500594 10.6854 -0.944524 14.3346 1.78337C15.642 2.76051 16.6183 4.00364 17.2542 5.50838C17.8938 7.02186 18.0881 8.59653 17.8663 10.2205C17.6452 11.837 17 13.2775 15.9499 14.6217C16.0349 14.6773 16.1255 14.7173 16.1904 14.7822C17.3448 15.9311 18.4947 17.0843 19.6491 18.2331C19.9227 18.5054 20.0589 18.8225 19.9776 19.2046C19.8165 19.9651 18.9108 20.2586 18.3298 19.7366C18.0575 19.4925 17.807 19.2234 17.5484 18.9649C16.6002 18.0177 15.6526 17.0699 14.7044 16.1227C14.665 16.0853 14.6238 16.0503 14.5726 16.0029ZM15.9605 8.98677C15.9705 5.12689 12.8529 2.00627 8.98262 2.00065C5.12292 1.99503 2.00781 5.09067 1.99094 8.94806C1.97408 12.8173 5.08544 15.9467 8.96762 15.9648C12.8117 15.9829 15.9506 12.8504 15.9605 8.98677Z" fill="#3D3D3D"/>
</symbol>



<symbol id="like" xmlns="http://www.w3.org/2000/svg" width="20" height="20" viewBox="0 0 20 20" fill="none">
  <g class="new">
  <path d="M10 18.8873C9.71527 18.8873 9.44077 18.7842 9.22684 18.5968C8.41888 17.8903 7.63992 17.2264 6.95267 16.6408L6.94916 16.6377C4.93423 14.9207 3.19427 13.4378 1.98364 11.9771C0.630341 10.3441 0 8.79578 0 7.10434C0 5.46097 0.563507 3.94485 1.58661 2.83508C2.62192 1.71219 4.04251 1.09375 5.58716 1.09375C6.74164 1.09375 7.79892 1.45874 8.72955 2.1785C9.19922 2.54181 9.62494 2.98645 10 3.5051C10.3752 2.98645 10.8008 2.54181 11.2706 2.1785C12.2012 1.45874 13.2585 1.09375 14.413 1.09375C15.9575 1.09375 17.3782 1.71219 18.4135 2.83508C19.4366 3.94485 20 5.46097 20 7.10434C20 8.79578 19.3698 10.3441 18.0165 11.9769C16.8059 13.4378 15.0661 14.9205 13.0515 16.6374C12.363 17.224 11.5828 17.8889 10.773 18.5971C10.5592 18.7842 10.2846 18.8873 10 18.8873ZM5.58716 2.26532C4.37363 2.26532 3.25882 2.74963 2.44781 3.62915C1.62476 4.52194 1.17142 5.75607 1.17142 7.10434C1.17142 8.52692 1.70013 9.79919 2.88559 11.2296C4.03137 12.6122 5.73563 14.0645 7.70889 15.7462L7.71255 15.7492C8.4024 16.3371 9.18442 17.0036 9.99832 17.7153C10.8171 17.0023 11.6003 16.3347 12.2916 15.7458C14.2647 14.0642 15.9688 12.6122 17.1146 11.2296C18.2999 9.79919 18.8286 8.52692 18.8286 7.10434C18.8286 5.75607 18.3752 4.52194 17.5522 3.62915C16.7413 2.74963 15.6264 2.26532 14.413 2.26532C13.524 2.26532 12.7078 2.54791 11.9872 3.10516C11.3449 3.60199 10.8975 4.23004 10.6352 4.66949C10.5003 4.89548 10.2629 5.03036 10 5.03036C9.73709 5.03036 9.49966 4.89548 9.36478 4.66949C9.10263 4.23004 8.65524 3.60199 8.01285 3.10516C7.29218 2.54791 6.47598 2.26532 5.58716 2.26532Z" fill="#3D3D3D"/>
    <path d="M10 18.8873C9.71527 18.8873 9.44077 18.7842 9.22684 18.5968C8.41888 17.8903 7.63992 17.2264 6.95267 16.6408L6.94916 16.6377C4.93423 14.9207 3.19427 13.4378 1.98364 11.9771C0.630341 10.3441 0 8.79578 0 7.10434C0 5.46097 0.563507 3.94485 1.58661 2.83508C2.62192 1.71219 4.04251 1.09375 5.58716 1.09375C6.74164 1.09375 7.79892 1.45874 8.72955 2.1785C9.19922 2.54181 9.62494 2.98645 10 3.5051C10.3752 2.98645 10.8008 2.54181 11.2706 2.1785C12.2012 1.45874 13.2585 1.09375 14.413 1.09375C15.9575 1.09375 17.3782 1.71219 18.4135 2.83508C19.4366 3.94485 20 5.46097 20 7.10434C20 8.79578 19.3698 10.3441 18.0165 11.9769C16.8059 13.4378 15.0661 14.9205 13.0515 16.6374C12.363 17.224 11.5828 17.8889 10.773 18.5971C10.5592 18.7842 10.2846 18.8873 10 18.8873ZM5.58716 2.26532C4.37363 2.26532 3.25882 2.74963 2.44781 3.62915C1.62476 4.52194 1.17142 5.75607 1.17142 7.10434C1.17142 8.52692 1.70013 9.79919 2.88559 11.2296C4.03137 12.6122 5.73563 14.0645 7.70889 15.7462L7.71255 15.7492C8.4024 16.3371 9.18442 17.0036 9.99832 17.7153C10.8171 17.0023 11.6003 16.3347 12.2916 15.7458C14.2647 14.0642 15.9688 12.6122 17.1146 11.2296C18.2999 9.79919 18.8286 8.52692 18.8286 7.10434C18.8286 5.75607 18.3752 4.52194 17.5522 3.62915C16.7413 2.74963 15.6264 2.26532 14.413 2.26532C13.524 2.26532 12.7078 2.54791 11.9872 3.10516C11.3449 3.60199 10.8975 4.23004 10.6352 4.66949C10.5003 4.89548 10.2629 5.03036 10 5.03036C9.73709 5.03036 9.49966 4.89548 9.36478 4.66949C9.10263 4.23004 8.65524 3.60199 8.01285 3.10516C7.29218 2.54791 6.47598 2.26532 5.58716 2.26532Z" fill="#3D3D3D"/>
</g>
</symbol>

<symbol id="searchnew" xmlns="http://www.w3.org/2000/svg" width="20" height="20" viewBox="0 0 20 20" fill="none">
    <path d="M14.5655 16.0022C10.5703 19.1858 4.98543 18.3048 2.02723 14.6536C-0.827947 11.1284 -0.649381 6.04306 2.44805 2.8245C5.6485 -0.500824 10.6802 -0.944742 14.3277 1.78307C15.6344 2.76019 16.6103 4.00328 17.2459 5.50798C17.8852 7.02142 18.0794 8.59605 17.8578 10.22C17.6367 11.8365 16.9918 13.2769 15.9422 14.6211C16.0272 14.6767 16.1177 14.7166 16.1826 14.7816C17.3364 15.9304 18.4859 17.0836 19.6397 18.2324C19.9131 18.5046 20.0493 18.8218 19.9681 19.2039C19.807 19.9643 18.9017 20.2578 18.321 19.7358C18.0488 19.4917 17.7985 19.2226 17.54 18.9641C16.5922 18.017 15.6451 17.0692 14.6973 16.122C14.6579 16.0846 14.6167 16.0496 14.5655 16.0022ZM15.9529 8.98627C15.9629 5.1265 12.8467 2.00597 8.97818 2.00035C5.12029 1.99473 2.00663 5.09029 1.98977 8.94757C1.97291 12.8167 5.08283 15.946 8.9632 15.9641C12.8055 15.9822 15.9429 12.8498 15.9529 8.98627Z" fill="#000000"/>
</symbol>


</svg>